<svg xmlns="http://www.w3.org/2000/svg" width="23" height="28" viewBox="0 0 23 28">
  <path d="M17.3,1,22,5.7V27H1V1H17.3m.414-1H0V28H23V5.284L17.716,0Z" fill="#f66"/>
  <path d="M7.973,20.55a1.382,1.382,0,0,1,1.464,1.293c0,.051,0,.1,0,.154a1.405,1.405,0,0,1-1.509,1.447H7.138v1.334H6.253V20.55Zm-.835,2.2h.6a.753.753,0,1,0,0-1.5h-.6Zm4.435-2.2a1.875,1.875,0,0,1,2.016,2.1,1.9,1.9,0,0,1-2.016,2.129H9.959V20.55Zm-.729,3.5h.625c.791,0,1.219-.48,1.219-1.4,0-.885-.44-1.371-1.219-1.371h-.625Zm3.316.732V20.55h2.769v.729H15.045v1.134h1.72v.7h-1.72v1.664Z" fill="#111"/>
</svg>
