<svg xmlns="http://www.w3.org/2000/svg" width="92" height="112" viewBox="0 0 92 112">
  <path d="M89,22.377V109H3V3H69.623ZM70.866,0H0V112H92V21.134L70.866,0Z" fill="#f66"/>
  <path d="M31.891,82.2a5.524,5.524,0,0,1,5.859,5.789c0,3.469-2.473,5.789-6.035,5.789H28.551v5.332H25.012V82.2Zm-3.34,8.813h2.39c2.028,0,3.211-1.078,3.211-3.012s-1.172-3-3.2-3h-2.4ZM46.293,82.2c5.074,0,8.062,3.024,8.062,8.391s-2.988,8.519-8.062,8.519H39.836V82.2ZM43.375,96.18h2.5c3.164,0,4.875-1.922,4.875-5.578,0-3.54-1.758-5.485-4.875-5.485h-2.5Zm13.266,2.929V82.2H67.715v2.918H60.18v4.535h6.879v2.8H60.18v6.656Z" fill="#111"/>
</svg>
